<svg width="16" height="16" viewBox="0 0 16 16" fill="none" xmlns="http://www.w3.org/2000/svg">
<path fill-rule="evenodd" clip-rule="evenodd" d="M10.0322 2.1424C10.5228 1.65175 11.3182 1.65175 11.8089 2.1424L12.6973 3.03079C13.188 3.52143 13.188 4.31692 12.6973 4.80757L11.8089 5.69596L9.14378 3.03079L10.0322 2.1424ZM8.69952 3.47497L11.3647 6.14014L6.21834 11.2865C6.10053 11.4043 5.94075 11.4705 5.77414 11.4705H3.68327C3.5098 11.4705 3.36918 11.3298 3.36918 11.1564V9.06555C3.36918 8.89889 3.43536 8.73914 3.55317 8.62136L8.69952 3.47497ZM3.76411 12.2473C3.50391 12.2473 3.29297 12.4582 3.29297 12.7184C3.29297 12.9787 3.50391 13.1895 3.76411 13.1895H12.8728C13.133 13.1895 13.344 12.9787 13.344 12.7184C13.344 12.4582 13.133 12.2473 12.8728 12.2473H3.76411Z" fill="#00798A"/>
</svg>
